<?xml version="1.0" encoding="UTF-8" standalone="no"?>
<!-- Creator: CorelDRAW -->

<svg
   xmlns:dc="http://purl.org/dc/elements/1.1/"
   xmlns:cc="http://creativecommons.org/ns#"
   xmlns:rdf="http://www.w3.org/1999/02/22-rdf-syntax-ns#"
   xmlns:svg="http://www.w3.org/2000/svg"
   xmlns="http://www.w3.org/2000/svg"
   xmlns:sodipodi="http://sodipodi.sourceforge.net/DTD/sodipodi-0.dtd"
   xmlns:inkscape="http://www.inkscape.org/namespaces/inkscape"
   xml:space="preserve"
   x="-135"
   y="90"
   width="300"
   height="300"
   viewBox="-1500 0 3333.3333 3333.3333"
   id="svg2"
   version="1.1"
   inkscape:version="0.48.4 r9939"
   sodipodi:docname="Seal of Pingtung County.svg"><metadata
   id="metadata43"><rdf:RDF><cc:Work
       rdf:about=""><dc:format>image/svg+xml</dc:format><dc:type
         rdf:resource="http://purl.org/dc/dcmitype/StillImage" /></cc:Work></rdf:RDF></metadata><sodipodi:namedview
   pagecolor="#ffffff"
   bordercolor="#666666"
   borderopacity="1"
   objecttolerance="10"
   gridtolerance="10"
   guidetolerance="10"
   inkscape:pageopacity="0"
   inkscape:pageshadow="2"
   inkscape:window-width="1680"
   inkscape:window-height="998"
   id="namedview41"
   showgrid="false"
   inkscape:zoom="1"
   inkscape:cx="527.36883"
   inkscape:cy="332.96637"
   inkscape:window-x="-8"
   inkscape:window-y="-8"
   inkscape:window-maximized="1"
   inkscape:current-layer="svg2" />
 <defs
   id="defs4">
  <style
   type="text/css"
   id="style6">
   
    .str0 {stroke:#1F1A17;stroke-width:3}
    .str1 {stroke:#1F1A17;stroke-width:3}
    .fil6 {fill:none}
    .fil3 {fill:#0093DD}
    .fil1 {fill:#1F1A17}
    .fil5 {fill:#84C326}
    .fil7 {fill:#DA251D}
    .fil0 {fill:#FFFFFF}
    .fil2 {fill:#FCDB00}
    .fil4 {fill:#2B7D3C}
   
  </style>
 
  
  
  
  
  
  
  
  
  
  
  
  
  
  
  
  
  
  
  
  
  
  
 </defs>
 <g
   id="g3043"
   transform="matrix(0.76804916,0,0,0.76804916,-2521.5054,-1520.7373)"><ellipse
     transform="matrix(3.3333333,0,0,3.3333333,3500,-3.3333332e-5)"
     id="71963528"
     class="fil1"
     cx="0"
     cy="1245"
     rx="651"
     ry="651"
     d="m 651,1245 c 0,359.5374 -291.46263,651 -651,651 -359.53737,0 -651,-291.4626 -651,-651 0,-359.53737 291.46263,-651 651,-651 359.53737,0 651,291.46263 651,651 z"
     sodipodi:cx="0"
     sodipodi:cy="1245"
     sodipodi:rx="651"
     sodipodi:ry="651"
     style="fill:#1f1a17" /><ellipse
     transform="matrix(3.3333333,0,0,3.3333333,3500,-3.3333332e-5)"
     id="71963616"
     class="fil2"
     cx="0"
     cy="1245"
     rx="642"
     ry="642"
     d="m 642,1245 c 0,354.5668 -287.43319,642 -642,642 -354.56681,0 -642,-287.4332 -642,-642 0,-354.56681 287.43319,-642 642,-642 354.56681,0 642,287.43319 642,642 z"
     sodipodi:cx="0"
     sodipodi:cy="1245"
     sodipodi:rx="642"
     sodipodi:ry="642"
     style="fill:#fcdb00" /><ellipse
     transform="matrix(3.3333333,0,0,3.3333333,3500,-3.3333332e-5)"
     id="71963704"
     class="fil1"
     cx="0"
     cy="1245"
     rx="519"
     ry="519"
     d="m 519,1245 c 0,286.6358 -232.36421,519 -519,519 -286.63579,0 -519,-232.3642 -519,-519 0,-286.63579 232.36421,-519 519,-519 286.63579,0 519,232.36421 519,519 z"
     sodipodi:cx="0"
     sodipodi:cy="1245"
     sodipodi:rx="519"
     sodipodi:ry="519"
     style="fill:#1f1a17" /><ellipse
     transform="matrix(3.3333333,0,0,3.3333333,3500,-3.3333332e-5)"
     id="71963792"
     class="fil3"
     cx="0"
     cy="1245"
     rx="509"
     ry="509"
     d="m 509,1245 c 0,281.1129 -227.88706,509 -509,509 -281.11294,0 -509,-227.8871 -509,-509 0,-281.11294 227.88706,-509 509,-509 281.11294,0 509,227.88706 509,509 z"
     sodipodi:cx="0"
     sodipodi:cy="1245"
     sodipodi:rx="509"
     sodipodi:ry="509"
     style="fill:#0093dd" /><path
     id="71963880"
     class="fil4"
     d="M 1803.3334,4183.3333 2550,3399.9999 2793.3333,3436.6666 3500,2879.9999 l 0,0 0,0 0,0 0,0 706.6667,556.6667 243.3333,-36.6667 746.6666,783.3334 c 0,10 0,23.3333 0,33.3333 l -1696.6666,250 0,0 0,0 0,0 0,0 -1696.6666,-250 c 0,-10 0,-23.3333 0,-33.3333 z"
     inkscape:connector-curvature="0"
     style="fill:#2b7d3c" /><path
     id="71963968"
     class="fil5"
     d="m 5176.6666,4419.9999 c -176.6666,66.6667 -786.6666,300 -1083.3333,556.6667 -96.6666,-40 -303.3333,-110 -593.3333,-110 0,0 0,0 0,0 -290,0 -496.6667,70 -593.3333,110 C 2610,4719.9999 2000,4486.6666 1823.3334,4419.9999 c -13.3334,-73.3333 -20,-150 -20,-226.6666 l 3393.3332,0 c 0,76.6666 -6.6666,153.3333 -20,226.6666 z"
     inkscape:connector-curvature="0"
     style="fill:#84c326" /><path
     id="71964056"
     class="fil0 str0"
     d="m 3370,3996.6666 260,0 43.3333,673.3333 -346.6666,0 L 3370,3996.6666 z m 130,0 m 153.3333,336.6667 M 3500,4669.9999 m -153.3333,-336.6666"
     inkscape:connector-curvature="0"
     style="fill:#ffffff;stroke:#1f1a17;stroke-width:10" /><path
     id="71964144"
     class="fil0 str0"
     d="m 3366.6667,3999.9999 266.6666,0 56.6667,-83.3333 -380,0 56.6667,83.3333 z m 133.3333,0 m 160,-40 m -160,-43.3333 m -160,43.3333"
     inkscape:connector-curvature="0"
     style="fill:#ffffff;stroke:#1f1a17;stroke-width:10" /><rect
     id="71964232"
     class="fil0 str0"
     x="3310"
     y="3833.3333"
     width="376.66666"
     height="83.333336"
     style="fill:#ffffff;stroke:#1f1a17;stroke-width:10" /><rect
     id="71964320"
     class="fil0 str0"
     x="3393.3333"
     y="3763.3333"
     width="213.33333"
     height="70"
     style="fill:#ffffff;stroke:#1f1a17;stroke-width:10" /><path
     id="71964408"
     class="fil0"
     d="m 1963.3333,3429.9999 1490,220 0,53.3334 -1610,70 c 30,-120 70,-236.6667 120,-343.3334 z"
     inkscape:connector-curvature="0"
     style="fill:#ffffff" /><rect
     id="71964496"
     class="fil0 str0"
     x="3356.6667"
     y="3710"
     width="290"
     height="53.333332"
     style="fill:#ffffff;stroke:#1f1a17;stroke-width:10" /><path
     id="71964584"
     class="fil0"
     d="m 5036.6667,3429.9999 -1490,220 0,53.3334 1610,70 c -30,-120 -70,-236.6667 -120,-343.3334 z"
     inkscape:connector-curvature="0"
     style="fill:#ffffff" /><rect
     id="71964672"
     class="fil0 str0"
     x="3406.6667"
     y="3626.6665"
     width="190"
     height="83.333336"
     style="fill:#ffffff;stroke:#1f1a17;stroke-width:10" /><path
     id="71964760"
     class="fil6 str0"
     d="m 3356.6667,3916.6666 26.6666,83.3333"
     inkscape:connector-curvature="0"
     style="fill:none;stroke:#1f1a17;stroke-width:10" /><g
     transform="matrix(3.3333333,0,0,3.3333333,3500,-3.3333332e-5)"
     id="g25">
   <path
   id="71963264"
   class="fil6 str1"
   d="m -30,1175 c 1,9 3,17 5,25"
   inkscape:connector-curvature="0"
   style="fill:none;stroke:#1f1a17;stroke-width:3" />
   <path
   id="71963176"
   class="fil6 str1"
   d="m -18,1175 c 1,9 2,17 3,25"
   inkscape:connector-curvature="0"
   style="fill:none;stroke:#1f1a17;stroke-width:3" />
   <path
   id="71963088"
   class="fil6 str1"
   d="m -6,1175 c 0,9 1,17 1,25"
   inkscape:connector-curvature="0"
   style="fill:none;stroke:#1f1a17;stroke-width:3" />
   <path
   id="71963000"
   class="fil6 str1"
   d="m 6,1175 c 0,9 -1,17 -1,25"
   inkscape:connector-curvature="0"
   style="fill:none;stroke:#1f1a17;stroke-width:3" />
   <path
   id="71962912"
   class="fil6 str1"
   d="m 18,1175 c -1,9 -2,17 -3,25"
   inkscape:connector-curvature="0"
   style="fill:none;stroke:#1f1a17;stroke-width:3" />
   <path
   id="71962824"
   class="fil6 str1"
   d="m 30,1175 c -1,9 -3,17 -5,25"
   inkscape:connector-curvature="0"
   style="fill:none;stroke:#1f1a17;stroke-width:3" />
  </g><path
     id="71964936"
     class="fil6 str0"
     d="m 3643.3333,3916.6666 -26.6666,83.3333"
     inkscape:connector-curvature="0"
     style="fill:none;stroke:#1f1a17;stroke-width:10" /><rect
     id="71965024"
     class="fil0 str0"
     x="3250"
     y="4653.3335"
     width="503.33334"
     height="126.66666"
     style="fill:#ffffff;stroke:#1f1a17;stroke-width:10" /><path
     id="71965112"
     class="fil1"
     d="m 1696.6667,4856.6666 -80,30 c -16.6667,10 -26.6667,13.3333 -30,20 -3.3333,6.6667 -3.3333,16.6667 0,26.6667 l 6.6667,10 -10,3.3333 -46.6667,-116.6667 6.6667,-3.3333 6.6666,10 c 3.3334,13.3333 10,20 20,20 6.6667,3.3333 16.6667,0 30,-6.6667 l 176.6667,-70 c 16.6667,-10 26.6667,-13.3333 30,-20 3.3333,-6.6666 3.3333,-16.6666 0,-26.6666 l -3.3333,-10 6.6666,-3.3334 40,100 c 10,23.3334 16.6667,43.3334 16.6667,60 0,16.6667 -3.3334,33.3334 -13.3334,46.6667 -6.6666,13.3333 -20,23.3333 -33.3333,30 -23.3333,10 -43.3333,10 -63.3333,0 -20,-6.6667 -36.6667,-26.6667 -46.6667,-53.3333 -3.3333,-6.6667 -6.6666,-13.3334 -6.6666,-20 -3.3334,-10 -6.6667,-16.6667 -6.6667,-26.6667 z m 10,-6.6667 c 3.3333,10 3.3333,16.6667 6.6667,23.3334 0,3.3333 3.3333,10 3.3333,13.3333 6.6667,13.3333 16.6667,23.3333 30,30 16.6667,3.3333 33.3333,3.3333 50,-3.3333 10,-3.3334 20,-10 30,-20 6.6666,-10 13.3333,-20 13.3333,-30 3.3333,-10 0,-20 -3.3333,-33.3334 -3.3334,-6.6666 -10,-13.3333 -16.6667,-23.3333 l -113.3333,43.3333 z m 3.3333,340 -6.6666,3.3333 -60,-113.3333 10,-3.3333 3.3333,10 c 6.6667,10 13.3333,16.6666 23.3333,20 3.3334,0 13.3334,-3.3334 30,-13.3334 l 166.6667,-86.6666 c 13.3333,-10 23.3333,-13.3333 26.6666,-16.6667 3.3334,-3.3333 3.3334,-6.6666 3.3334,-13.3333 0,-6.6667 0,-13.3333 -3.3334,-20 l -6.6666,-10 6.6666,-3.3333 60,109.9999 -6.6666,6.6667 -6.6667,-10 c -3.3333,-10 -10,-16.6667 -20,-20 -6.6667,0 -16.6667,3.3333 -33.3333,13.3333 L 1730,5129.9999 c -13.3333,6.6667 -20,13.3333 -23.3333,16.6667 -3.3333,3.3333 -6.6667,6.6666 -6.6667,13.3333 0,6.6667 3.3334,13.3333 6.6667,20 l 3.3333,10 z m 240,-143.3333 46.6667,63.3333 -73.3334,273.3333 140,-96.6666 c 13.3334,-13.3334 20,-20 23.3334,-26.6667 0,-6.6667 -3.3334,-16.6667 -10,-26.6667 l -3.3334,-6.6666 6.6667,-6.6667 60,83.3333 -6.6667,6.6667 -6.6666,-10 C 2120,5289.9999 2110,5286.6666 2100,5286.6666 c -3.3333,0 -13.3333,3.3333 -26.6667,13.3333 l -200,146.6667 -6.6666,-6.6667 80,-296.6667 L 1800,5249.9999 c -16.6666,10 -23.3333,20 -23.3333,23.3333 -3.3333,10 0,16.6667 6.6667,26.6667 l 6.6666,10 -6.6666,3.3333 -60,-83.3333 6.6666,-3.3333 3.3334,6.6666 c 10,10 16.6666,16.6667 26.6666,16.6667 6.6667,0 13.3334,-6.6667 26.6667,-16.6667 l 166.6666,-120 c 3.3334,-10 3.3334,-20 3.3334,-26.6666 0,-3.3334 0,-10 -3.3334,-20 0,-3.3334 -3.3333,-10 -10,-16.6667 l 6.6667,-3.3333 z m 373.3333,440 -63.3333,66.6666 -3.3333,-3.3333 c 10,-23.3333 16.6666,-40 16.6666,-56.6667 0,-26.6666 -10,-46.6666 -30,-66.6666 -26.6666,-26.6667 -56.6666,-36.6667 -90,-30 -30,3.3333 -56.6666,20 -83.3333,43.3333 -20,20 -33.3333,40 -43.3333,63.3333 -6.6667,26.6667 -10,46.6667 -6.6667,66.6667 6.6667,20 13.3333,36.6667 26.6667,50 6.6666,10 16.6666,13.3333 23.3333,20 10,6.6667 20,10 30,13.3333 l 60,-60 c 13.3333,-10 16.6667,-16.6666 20,-23.3333 3.3333,-3.3333 3.3333,-6.6667 0,-13.3333 0,-6.6667 -6.6667,-13.3334 -13.3333,-20 l 3.3333,-6.6667 80,83.3333 -6.6667,3.3334 -3.3333,-3.3334 c -6.6667,-6.6666 -13.3333,-10 -23.3333,-6.6666 -6.6667,0 -13.3334,6.6666 -26.6667,16.6666 l -63.3333,63.3334 c -20,-6.6667 -33.3334,-13.3334 -50,-20 -13.3334,-10 -26.6667,-23.3334 -40,-36.6667 -40,-40 -56.6667,-83.3333 -50,-130 3.3333,-36.6667 16.6666,-66.6667 43.3333,-90 20,-16.6667 40,-30 66.6667,-36.6667 30,-10 60,-10 90,-3.3333 23.3333,6.6667 46.6666,20 66.6666,43.3333 6.6667,6.6667 13.3334,13.3334 16.6667,23.3334 6.6667,6.6666 10,16.6666 16.6667,33.3333 3.3333,6.6667 6.6666,13.3333 10,13.3333 0,3.3334 3.3333,3.3334 6.6666,3.3334 3.3334,0 6.6667,-3.3334 13.3334,-6.6667 l 6.6666,6.6667 z M 2770,5773.3332 l -30,63.3334 -6.6667,-3.3334 c 3.3334,-10 6.6667,-20 6.6667,-26.6666 0,-10 -3.3333,-16.6667 -6.6667,-23.3334 -6.6666,-6.6666 -13.3333,-13.3333 -23.3333,-20 l -40,-16.6666 -100,200 c -10,13.3333 -13.3333,26.6666 -10,30 0,10 6.6667,16.6666 16.6667,20 l 10,6.6666 -3.3334,6.6667 -110,-56.6667 3.3334,-6.6666 10,3.3333 c 10,6.6667 20,6.6667 26.6666,3.3333 6.6667,-3.3333 13.3334,-13.3333 20,-26.6666 l 100,-200 -30,-16.6667 c -13.3333,-6.6667 -20,-10 -26.6666,-10 -10,0 -16.6667,0 -26.6667,3.3333 -6.6667,6.6667 -13.3333,13.3334 -20,26.6667 l -10,-3.3333 36.6667,-60 L 2770,5773.3332 z m 206.6667,86.6667 3.3333,-6.6667 96.6667,30 0,6.6667 -13.3334,-3.3333 c -10,-3.3334 -20,0 -26.6666,6.6666 -6.6667,3.3334 -10,13.3334 -16.6667,30 l -36.6667,113.3334 c -6.6666,26.6666 -16.6666,46.6666 -30,60 -10,13.3333 -23.3333,23.3333 -43.3333,30 -20,6.6666 -43.3333,3.3333 -73.3333,-3.3334 -30,-10 -50,-23.3333 -63.3334,-40 -13.3333,-16.6666 -20,-33.3333 -20,-53.3333 0,-13.3333 3.3334,-36.6667 16.6667,-70 l 33.3333,-110 c 6.6667,-16.6667 6.6667,-30 6.6667,-36.6667 -3.3333,-6.6666 -10,-13.3333 -23.3333,-16.6666 l -10,-3.3334 3.3333,-6.6666 120,40 -3.3333,6.6666 -10,-3.3333 c -10,-3.3333 -20,-3.3333 -26.6667,3.3333 -6.6667,3.3334 -10,13.3334 -16.6667,30 l -40,120 c -3.3333,13.3334 -6.6666,23.3334 -6.6666,40 -3.3334,13.3334 -3.3334,26.6667 0,36.6667 0,10 6.6666,16.6667 16.6666,26.6667 6.6667,6.6666 16.6667,13.3333 33.3334,20 16.6666,3.3333 33.3333,6.6666 53.3333,3.3333 16.6667,-3.3333 30,-10 36.6667,-23.3333 10,-10 20,-30 30,-60 l 36.6666,-113.3334 c 6.6667,-16.6666 6.6667,-26.6666 3.3334,-33.3333 -3.3334,-6.6667 -10,-13.3333 -20,-16.6667 l -10,-3.3333 z m 110,33.3333 80,10 150,240 20,-166.6666 c 3.3333,-20 3.3333,-30 0,-36.6667 -6.6667,-6.6667 -13.3334,-10 -26.6667,-10 l -10,-3.3333 3.3333,-6.6667 100,13.3333 0,6.6667 -10,0 c -13.3333,-3.3333 -23.3333,0 -30,6.6667 -3.3333,3.3333 -3.3333,13.3333 -6.6666,30 l -30,246.6666 -6.6667,0 -166.6667,-260 -20,180 c -3.3333,20 -3.3333,30 0,33.3334 6.6667,6.6666 13.3334,13.3333 26.6667,13.3333 l 10,0 -3.3333,10 -100,-13.3333 0,-6.6667 10,0 c 13.3333,3.3333 23.3333,0 30,-6.6667 3.3333,-6.6666 6.6666,-16.6666 6.6666,-33.3333 l 26.6667,-200 c -10,-13.3333 -13.3333,-20 -16.6667,-23.3333 -6.6666,-3.3334 -10,-6.6667 -20,-10 -3.3333,-3.3334 -10,-3.3334 -16.6666,-6.6667 l 0,-6.6667 z m 573.3333,26.6667 10,93.3333 -6.6667,0 c -6.6666,-23.3333 -20,-40 -30,-53.3333 -20,-16.6667 -40,-23.3333 -70,-23.3333 -36.6666,0 -63.3333,16.6666 -83.3333,46.6666 -16.6667,26.6667 -23.3333,53.3334 -23.3333,90 0,26.6667 6.6666,53.3334 16.6666,76.6667 13.3334,23.3333 26.6667,40 43.3334,50 20,10 36.6666,13.3333 56.6666,13.3333 10,0 20,0 30,-3.3333 10,-3.3333 20,-6.6667 30,-13.3333 L 3630,6113.3332 c 0,-16.6666 0,-26.6666 -3.3333,-30 0,-3.3333 -3.3334,-6.6666 -10,-10 -3.3334,-3.3333 -13.3334,-3.3333 -23.3334,-3.3333 l 0,-6.6667 113.3334,-3.3333 0,6.6667 -6.6667,0 c -10,0 -20,6.6666 -23.3333,13.3333 -3.3334,6.6667 -3.3334,16.6667 -3.3334,30 l 3.3334,90 c -16.6667,10 -33.3334,16.6667 -50,23.3333 -16.6667,3.3334 -33.3334,6.6667 -53.3334,6.6667 -56.6666,0 -100,-16.6667 -130,-53.3333 -23.3333,-26.6667 -36.6666,-56.6667 -36.6666,-93.3334 0,-26.6666 6.6666,-50 16.6666,-76.6666 16.6667,-26.6667 36.6667,-50 60,-63.3334 23.3334,-13.3333 46.6667,-20 76.6667,-20 10,0 20,0 30,0 6.6667,3.3334 20,6.6667 36.6667,13.3334 6.6666,0 13.3333,3.3333 16.6666,3.3333 3.3334,0 3.3334,-3.3333 6.6667,-3.3333 3.3333,-3.3334 3.3333,-10 3.3333,-16.6667 l 6.6667,0 z m 543.3333,-133.3333 40,93.3333 -6.6666,0 c -20,-23.3333 -36.6667,-40 -56.6667,-50 -20,-6.6667 -43.3333,-6.6667 -63.3333,0 -20,6.6667 -33.3334,16.6667 -46.6667,33.3333 -13.3333,13.3334 -20,30 -20,53.3334 -3.3333,26.6666 3.3333,53.3333 10,83.3333 10,23.3333 20,46.6667 36.6667,60 13.3333,16.6667 30,26.6667 50,33.3333 20,3.3334 40,3.3334 60,-3.3333 16.6666,-6.6667 33.3333,-16.6667 43.3333,-30 13.3333,-10 23.3333,-30 30,-60 l 10,3.3333 c -6.6667,30 -16.6667,53.3334 -33.3333,70 -13.3334,16.6667 -33.3334,30 -60,40 -46.6667,13.3334 -86.6667,6.6667 -123.3334,-16.6666 -26.6666,-20 -46.6666,-46.6667 -60,-83.3334 -6.6666,-26.6666 -10,-53.3333 -6.6666,-83.3333 6.6666,-26.6667 16.6666,-50 36.6666,-70 16.6667,-20 40,-33.3333 63.3334,-43.3333 20,-6.6667 43.3333,-6.6667 66.6666,-3.3334 6.6667,0 10,0 13.3334,0 3.3333,0 6.6666,-3.3333 6.6666,-6.6666 3.3334,-6.6667 3.3334,-10 3.3334,-16.6667 l 6.6666,-3.3333 z m 150,-80 c 33.3334,-16.6667 70,-20 106.6667,-6.6667 36.6667,13.3333 66.6667,40 86.6667,76.6667 20,40 23.3333,80 13.3333,120 -13.3333,40 -36.6667,66.6666 -73.3333,86.6666 -33.3334,16.6667 -70,20 -110,6.6667 -36.6667,-13.3333 -66.6667,-40 -86.6667,-80 -20,-43.3333 -23.3333,-83.3333 -10,-123.3333 13.3333,-36.6667 36.6667,-63.3334 73.3333,-80 z m 3.3334,16.6666 c -23.3334,10 -40,30 -43.3334,53.3334 -6.6666,30 0,66.6666 20,110 23.3334,43.3333 50,70 80,83.3333 20,10 43.3334,10 66.6667,0 26.6667,-13.3333 40,-33.3333 46.6667,-60 6.6666,-30 0,-63.3333 -23.3334,-103.3333 -20,-46.6667 -46.6666,-73.3334 -76.6666,-86.6667 -23.3334,-10 -46.6667,-10 -70,3.3333 z m 280,-190 -3.3334,-6.6666 80,-63.3334 6.6667,6.6667 -10,6.6667 c -10,6.6666 -13.3333,16.6666 -10,26.6666 0,6.6667 3.3333,13.3334 13.3333,26.6667 l 73.3334,93.3333 c 20,23.3334 30,43.3334 36.6666,60 3.3334,16.6667 3.3334,36.6667 -3.3333,53.3334 -6.6667,20 -20,40 -43.3333,60 -23.3334,16.6666 -46.6667,30 -66.6667,30 -20,3.3333 -40,-3.3334 -56.6667,-13.3334 -10,-6.6666 -26.6666,-23.3333 -50,-53.3333 l -70,-90 c -10,-13.3333 -20,-23.3333 -26.6666,-23.3333 -10,0 -16.6667,0 -26.6667,6.6666 l -6.6667,10 -6.6666,-6.6666 100,-80 6.6666,6.6666 -10,6.6667 c -10,6.6667 -13.3333,16.6667 -13.3333,26.6667 0,6.6666 6.6667,13.3333 16.6667,26.6666 l 76.6666,103.3334 c 6.6667,6.6666 16.6667,16.6666 26.6667,26.6666 13.3333,10 23.3333,16.6667 30,20 10,3.3334 20,3.3334 33.3333,3.3334 10,-3.3334 23.3334,-10 33.3334,-16.6667 16.6666,-13.3333 26.6666,-26.6667 33.3333,-43.3333 6.6667,-16.6667 10,-30 6.6667,-43.3334 C 4800,5679.9999 4790,5659.9999 4770,5636.6666 l -73.3333,-96.6667 c -10,-13.3333 -20,-20 -26.6667,-23.3333 -6.6667,0 -16.6667,3.3333 -23.3333,10 l -10,6.6666 z m 73.3333,-60 53.3333,-60 283.3334,10 L 4920,5309.9999 c -13.3333,-10 -23.3333,-16.6667 -30,-16.6667 -10,0 -16.6667,3.3334 -23.3333,13.3334 l -6.6667,6.6666 -6.6667,-3.3333 66.6667,-76.6667 6.6667,3.3334 -6.6667,10 c -10,6.6666 -13.3333,16.6666 -10,26.6666 3.3333,3.3334 10,13.3334 20,23.3334 l 186.6667,163.3333 -3.3334,6.6667 -306.6666,-10 136.6666,120 c 13.3334,10 23.3334,16.6666 30,16.6666 6.6667,0 16.6667,-6.6666 23.3334,-13.3333 l 6.6666,-6.6667 6.6667,3.3334 -66.6667,76.6666 -6.6666,-3.3333 6.6666,-10 c 6.6667,-6.6667 10,-16.6667 10,-26.6667 -3.3333,-6.6666 -10,-13.3333 -23.3333,-23.3333 l -153.3333,-133.3333 c -13.3334,0 -23.3334,0 -26.6667,0 -6.6667,0 -13.3333,3.3333 -20,10 -3.3333,0 -6.6667,6.6666 -13.3333,13.3333 L 4710,5473.3332 z m 343.3333,-443.3333 56.6667,33.3333 -3.3333,6.6667 c -10,-3.3333 -20,-6.6667 -23.3334,-6.6667 -10,-3.3333 -20,0 -26.6666,3.3334 -6.6667,3.3333 -13.3334,13.3333 -20,23.3333 l -23.3334,33.3333 L 5200,5246.6666 c 16.6666,10 26.6666,13.3333 33.3333,13.3333 6.6667,-3.3333 13.3333,-6.6667 20,-16.6667 l 6.6667,-10 6.6666,6.6667 -66.6666,103.3333 -6.6667,-3.3333 3.3333,-10 c 6.6667,-10 10,-20 6.6667,-30 -3.3333,-3.3333 -10,-10 -23.3333,-20 l -190,-123.3333 -20,30 c -6.6667,13.3333 -10,20 -13.3333,26.6666 0,10 0,16.6667 3.3333,26.6667 3.3333,6.6667 10,16.6667 23.3333,23.3333 l -6.6666,6.6667 -56.6667,-40 133.3333,-200 z M 5150,4816.6666 l 43.3333,-90 6.6667,3.3333 0,3.3334 c -3.3334,3.3333 -3.3334,10 -3.3334,16.6666 0,10 0,16.6667 3.3334,23.3334 3.3333,10 10,20 20,33.3333 l 70,113.3333 66.6666,30 c 16.6667,6.6667 26.6667,10 33.3334,10 6.6666,-3.3333 13.3333,-10 20,-20 l 3.3333,-10 6.6667,3.3334 -53.3334,113.3333 -6.6666,-3.3334 6.6666,-10 c 3.3334,-10 3.3334,-20 0,-26.6666 -3.3333,-6.6667 -13.3333,-13.3333 -26.6666,-20 l -63.3334,-30 L 5130,4979.9999 c -16.6667,3.3334 -26.6667,3.3334 -33.3333,6.6667 -3.3334,0 -10,3.3333 -20,13.3333 0,0 -3.3334,3.3333 -6.6667,10 l -6.6667,-3.3333 53.3334,-113.3333 6.6666,3.3333 -3.3333,3.3333 c -3.3333,6.6667 -3.3333,13.3334 -3.3333,20 0,6.6667 3.3333,10 10,13.3334 3.3333,3.3333 13.3333,3.3333 30,0 L 5270,4919.9999 l -60,-93.3333 c -6.6667,-13.3333 -13.3334,-20 -20,-23.3333 -3.3334,0 -6.6667,-3.3334 -10,0 -6.6667,0 -10,0 -13.3334,3.3333 -3.3333,3.3333 -6.6666,6.6667 -9.9999,13.3333 L 5150,4816.6666 z"
     inkscape:connector-curvature="0"
     style="fill:#1f1a17" /><path
     id="71965200"
     class="fil0 str0"
     d="m 3126.6667,5243.3332 0,63.3334 -70,0 0,53.3333 86.6666,0 0,63.3333 -86.6666,0 0,126.6667 -73.3334,0 0,-126.6667 -86.6666,0 c -6.6667,60 -50,103.3334 -130,126.6667 L 2720,5483.3332 c 30,-3.3333 56.6667,-10 76.6667,-23.3333 20,-13.3333 30,-23.3333 30,-36.6667 l -93.3334,0 0,-63.3333 96.6667,0 0,-53.3333 -80,0 0,-60 80,0 c -10,-16.6667 -20,-30 -33.3333,-43.3334 l 66.6666,-13.3333 c 13.3334,13.3333 30,30 43.3334,56.6667 l 63.3333,0 c 16.6667,-20 30,-40 40,-56.6667 l 70,13.3333 c -13.3333,20 -23.3333,33.3334 -33.3333,43.3334 l 80,-3.3334 z m 873.3333,210 0,0 0,-96.6666 -103.3333,0 0,-293.3334 63.3333,0 0,236.6667 180,0 0,56.6667 -73.3333,0 0,96.6666 0,0 0,90 -66.6667,0 0,-90 z m 236.6667,0 0,0 0,-96.6666 c -23.3334,3.3333 -50,6.6666 -83.3334,6.6666 l -6.6666,-66.6666 20,0 c 13.3333,-6.6667 30,-20 46.6666,-40 20,-16.6667 30,-26.6667 30,-26.6667 -26.6666,3.3333 -56.6666,6.6667 -86.6666,6.6667 l -10,-60 26.6666,0 c 20,-23.3334 36.6667,-43.3334 43.3334,-66.6667 -13.3334,3.3333 -33.3334,3.3333 -60,6.6667 L 4140,5049.9999 c 3.3333,0 10,0 16.6667,0 90,0 163.3333,-6.6667 223.3333,-20 l 20,53.3333 c -36.6667,10 -73.3333,16.6667 -103.3333,16.6667 -13.3334,26.6667 -30,53.3333 -56.6667,76.6667 10,0 26.6667,0 50,-3.3334 13.3333,-13.3333 23.3333,-30 36.6667,-53.3333 l 63.3333,30 c -20,30 -46.6667,60 -76.6667,90 -30,33.3333 -53.3333,50 -66.6666,56.6667 36.6666,0 63.3333,0 83.3333,-3.3334 -3.3333,-13.3333 -10,-26.6666 -13.3333,-40 l 50,-10 c 16.6666,33.3334 33.3333,73.3334 43.3333,113.3334 l -53.3333,13.3333 c 20,30 36.6666,73.3333 53.3333,130 l -60,23.3333 c -10,-50 -26.6667,-96.6666 -46.6667,-143.3333 l 50,-10 -6.6666,-23.3333 c -16.6667,3.3333 -33.3334,6.6666 -50,6.6666 l 0,100 0,0 0,90 -60,0 0,-90 z M 2730,5229.9999 c 0,130 -16.6667,236.6667 -53.3333,316.6667 l -70,-56.6667 c 33.3333,-66.6667 50,-173.3333 50,-310 l 0,-150 463.3333,0 0,156.6667 -390,0 0,43.3333 z m 173.3333,76.6667 0,53.3333 80,0 0,-53.3333 -80,0 z m -173.3333,-180 316.6667,0 0,-36.6667 -316.6667,0 0,36.6667 z m 573.3333,260 0,-236.6667 170,0 0,-30 -216.6666,0 0,-63.3333 216.6666,0 0,-40 76.6667,0 0,40 216.6667,0 0,63.3333 -216.6667,0 0,30 173.3333,0 0,236.6667 -93.3333,0 c 33.3333,30 83.3333,56.6666 146.6667,73.3333 l -33.3334,66.6667 c -90,-30 -153.3333,-76.6667 -193.3333,-140 l 0,163.3333 -76.6667,0 0,-163.3333 c -40,60 -103.3333,106.6666 -190,140 l -36.6666,-66.6667 c 66.6666,-20 116.6666,-43.3333 146.6666,-73.3333 l -90,0 z m 350,-60 0,-33.3334 -103.3333,0 0,33.3334 103.3333,0 z m 0,-86.6667 0,-30 -103.3333,0 0,30 103.3333,0 z m -180,0 0,-30 -100,0 0,30 100,0 z m 0,86.6667 0,-33.3334 -100,0 0,33.3334 100,0 z m 663.3334,-46.6667 -156.6667,0 0,-250 156.6667,0 0,250 z m -3.3334,170 -36.6666,13.3333 c -3.3334,-33.3333 -13.3334,-63.3333 -23.3334,-86.6666 l 46.6667,-10 c 10,16.6666 16.6667,40 26.6667,63.3333 10,-23.3333 13.3333,-40 16.6666,-56.6667 l 53.3334,13.3334 c -13.3334,66.6666 -30,113.3333 -50,140 l -60,-30 c 13.3333,-13.3334 23.3333,-30 26.6666,-46.6667 z m -176.6666,26.6667 0,0 c 0,3.3333 0,6.6666 0,10 l 0,0 c -6.6667,16.6666 -10,26.6666 -13.3334,33.3333 L 3880,5493.3332 c 23.3333,-40 36.6667,-83.3333 40,-130 l 60,10 c -6.6667,36.6667 -13.3333,73.3334 -23.3333,103.3334 z M 4080,5083.3332 l -43.3333,0 0,20 43.3333,0 0,-20 z m -43.3333,83.3334 43.3333,0 0,-23.3334 -43.3333,0 0,23.3334 z m 0,63.3333 43.3333,0 0,-23.3333 -43.3333,0 0,23.3333 z"
     inkscape:connector-curvature="0"
     style="fill:#ffffff;stroke:#1f1a17;stroke-width:10" /></g>
</svg>